<?xml version="1.0" encoding="utf-8"?><!-- Generated by IcoMoon.io --><!DOCTYPE svg PUBLIC "-//W3C//DTD SVG 1.1//EN" "http://www.w3.org/Graphics/SVG/1.1/DTD/svg11.dtd"><svg version="1.1" xmlns="http://www.w3.org/2000/svg" xmlns:xlink="http://www.w3.org/1999/xlink" width="18" height="18" viewBox="0 0 18 18" data-tags="cancel"><g fill="#444" transform="scale(0.017578125 0.017578125)"><path d="M512 56.889c-251.362 0-455.111 203.749-455.111 455.111s203.749 455.111 455.111 455.111 455.111-203.749 455.111-455.111-203.749-455.111-455.111-455.111zM170.667 512c0-73.639 23.666-141.694 63.472-197.527l475.388 475.388c-55.833 39.806-123.888 63.472-197.527 63.472-188.222 0-341.333-153.111-341.333-341.333zM789.861 709.527l-475.388-475.388c55.833-39.806 123.888-63.472 197.527-63.472 188.222 0 341.333 153.111 341.333 341.333 0 73.639-23.666 141.694-63.472 197.527z" /></g></svg>