<?xml version="1.0" encoding="utf-8"?><!-- Generated by IcoMoon.io --><!DOCTYPE svg PUBLIC "-//W3C//DTD SVG 1.1//EN" "http://www.w3.org/Graphics/SVG/1.1/DTD/svg11.dtd"><svg version="1.1" xmlns="http://www.w3.org/2000/svg" xmlns:xlink="http://www.w3.org/1999/xlink" width="20" height="20" viewBox="0 0 20 20" data-tags="edit"><g fill="#444" transform="scale(0.01953125 0.01953125)"><path d="M899.123 124.877c-73.83-73.882-129.28-62.822-129.28-62.822l-656.691 656.64-51.712 243.814 243.866-51.712 656.691-656.538c-0.051 0 11.059-55.45-62.874-129.382zM290.816 881.51l-83.149 17.92c-7.987-15.002-17.664-30.003-35.328-47.718-17.715-17.715-32.717-27.29-47.718-35.379l17.92-83.098 24.064-24.013c0 0 45.21 0.922 96.307 52.019 51.046 50.995 52.019 96.307 52.019 96.307l-24.115 23.962z" /></g></svg>