<?xml version="1.0" encoding="utf-8"?><!-- Generated by IcoMoon.io --><!DOCTYPE svg PUBLIC "-//W3C//DTD SVG 1.1//EN" "http://www.w3.org/Graphics/SVG/1.1/DTD/svg11.dtd"><svg version="1.1" xmlns="http://www.w3.org/2000/svg" xmlns:xlink="http://www.w3.org/1999/xlink" width="48" height="48" viewBox="0 0 48 48" data-tags="key,password,unlock"><g fill="#444" transform="scale(0.046875 0.046875)"><path d="M46.144 815.382c-33.088 33.046-33.088 86.806 0 119.872 33.066 33.088 86.826 33.088 119.658 0l23.894-23.658 99.648 99.626c17.046 17.066 44.352 17.066 61.418 0l148.502-148.502c17.066-17.046 17.066-44.352 0-61.418l-99.626-99.626 177.472-177.706c38.016 19.604 81.3 30.696 126.976 30.696 153.174 0 277.334-124.138 277.334-277.334 0-153.174-124.16-277.334-277.334-277.334-153.216 0-277.354 124.16-277.354 277.334 0 45.674 11.094 88.96 30.698 126.934l-411.286 411.116zM597.418 277.334c0-58.88 47.786-106.666 106.666-106.666s106.666 47.786 106.666 106.666-47.786 106.666-106.666 106.666-106.666-47.786-106.666-106.666z" /></g></svg>