<?xml version="1.0" encoding="utf-8"?><!-- Generated by IcoMoon.io --><!DOCTYPE svg PUBLIC "-//W3C//DTD SVG 1.1//EN" "http://www.w3.org/Graphics/SVG/1.1/DTD/svg11.dtd"><svg version="1.1" xmlns="http://www.w3.org/2000/svg" xmlns:xlink="http://www.w3.org/1999/xlink" width="16" height="16" viewBox="0 0 16 16" data-tags="floppy,disk,save,store"><g fill="#444" transform="scale(0.015625 0.015625)"><path d="M960 1024h-896c-35.328 0-64-28.672-64-64v-896c0-35.328 28.672-64 64-64h768l192 192v768c0 35.328-28.672 64-64 64zM256 864c0 17.696 14.336 32 32 32h448c17.696 0 32-14.304 32-32v-256c0-17.696-14.304-32-32-32h-448c-17.664 0-32 14.304-32 32v256zM704 160c0-17.696-14.304-32-32-32s-32 14.304-32 32v96c0 17.696 14.304 32 32 32s32-14.304 32-32v-96zM896 224l-96-96h-32v224c0 17.696-14.304 32-32 32h-448c-17.664 0-32-14.304-32-32v-224h-96c-17.664 0-32 14.304-32 32v704c0 17.696 14.336 32 32 32h32v-352c0-17.696 14.336-32 32-32h576c17.696 0 32 14.304 32 32v352h32c17.696 0 32-14.304 32-32v-640z" /></g></svg>